HIERARCHY
ROOT reference
{
  OFFSET 0 0 0
  CHANNELS 6 Xposition Yposition Zposition Zrotation Xrotation Yrotation
  JOINT Hips
  {
    OFFSET 347.352 87.9396 215.108
    CHANNELS 3 Zrotation Xrotation Yrotation
    JOINT RightUpLeg
    {
      OFFSET -9.26448 -1.5905 0.0349838
      CHANNELS 3 Zrotation Xrotation Yrotation
      JOINT RightLeg
      {
        OFFSET 0.0309074 -41.8937 0.0182011
        CHANNELS 3 Zrotation Xrotation Yrotation
        JOINT RightFoot
        {
          OFFSET 0.355296 -42.3801 0.810868
          CHANNELS 3 Zrotation Xrotation Yrotation
          End Site
          {
            OFFSET 0 -7.69 17.5
          }
        }
      }
    }
    JOINT LeftUpLeg
    {
      OFFSET 9.27369 -1.59127 -0.0547904
      CHANNELS 3 Zrotation Xrotation Yrotation
      JOINT LeftLeg
      {
        OFFSET 0.0553589 -41.8938 0.0587288
        CHANNELS 3 Zrotation Xrotation Yrotation
        JOINT LeftFoot
        {
          OFFSET 0.217916 -41.5497 -0.688939
          CHANNELS 3 Zrotation Xrotation Yrotation
          End Site
          {
            OFFSET 0 -7.69 17.5
          }
        }
      }
    }
    JOINT Spine
    {
      OFFSET 0.0383554 14.2988 0.0402393
      CHANNELS 3 Zrotation Xrotation Yrotation
      JOINT Spine1
      {
        OFFSET 0.0188251 9.70742 0.0136471
        CHANNELS 3 Zrotation Xrotation Yrotation
        JOINT Spine2
        {
          OFFSET 0.0421292 10.115 0.0126686
          CHANNELS 3 Zrotation Xrotation Yrotation
          JOINT Spine3
          {
            OFFSET 0.0499826 9.71803 0.0151296
            CHANNELS 3 Zrotation Xrotation Yrotation
            JOINT Neck
            {
              OFFSET 0.04654 10.3867 0.0448026
              CHANNELS 3 Zrotation Xrotation Yrotation
              JOINT Head
              {
                OFFSET 0.0370611 9.47282 0.0189897
                CHANNELS 3 Zrotation Xrotation Yrotation
                End Site
                {
                  OFFSET 0 15.95 0
                }
              }
            }
            JOINT RightShoulder
            {
              OFFSET -3.19309 6.93146 -0.00624137
              CHANNELS 3 Zrotation Xrotation Yrotation
              JOINT RightArm
              {
                OFFSET -12.7764 0.00688168 -0.00548706
                CHANNELS 3 Zrotation Xrotation Yrotation
                JOINT RightForeArm
                {
                  OFFSET -26.5073 -0.0244096 0.0677859
                  CHANNELS 3 Zrotation Xrotation Yrotation
                  JOINT RightHand
                  {
                    OFFSET -26.0056 -0.000416843 0.0508974
                    CHANNELS 3 Zrotation Xrotation Yrotation
                    JOINT RightHandThumb1
                    {
                      OFFSET -2.48905 0.190105 3.12053
                      CHANNELS 3 Zrotation Xrotation Yrotation
                      JOINT RightHandThumb2
                      {
                        OFFSET -3.68274 0 0
                        CHANNELS 3 Zrotation Xrotation Yrotation
                        JOINT RightHandThumb3
                        {
                          OFFSET -2.55832 0 0
                          CHANNELS 3 Zrotation Xrotation Yrotation
                          End Site
                          {
                            OFFSET -2.194 0 0
                          }
                        }
                      }
                    }
                    JOINT RightInHandIndex
                    {
                      OFFSET -3.22368 0.508421 1.97842
                      CHANNELS 3 Zrotation Xrotation Yrotation
                      JOINT RightHandIndex1
                      {
                        OFFSET -5.21684 -0.091368 0.999158
                        CHANNELS 3 Zrotation Xrotation Yrotation
                        JOINT RightHandIndex2
                        {
                          OFFSET -3.61937 0 0
                          CHANNELS 3 Zrotation Xrotation Yrotation
                          JOINT RightHandIndex3
                          {
                            OFFSET -2.0521 0 0
                            CHANNELS 3 Zrotation Xrotation Yrotation
                            End Site
                            {
                              OFFSET -1.805 0 0
                            }
                          }
                        }
                      }
                    }
                    JOINT RightInHandMiddle
                    {
                      OFFSET -3.38211 0.517263 0.756737
                      CHANNELS 3 Zrotation Xrotation Yrotation
                      JOINT RightHandMiddle1
                      {
                        OFFSET -5.17411 -0.084 0.313895
                        CHANNELS 3 Zrotation Xrotation Yrotation
                        JOINT RightHandMiddle2
                        {
                          OFFSET -3.94947 0 0
                          CHANNELS 3 Zrotation Xrotation Yrotation
                          JOINT RightHandMiddle3
                          {
                            OFFSET -2.47579 0 0
                            CHANNELS 3 Zrotation Xrotation Yrotation
                            End Site
                            {
                              OFFSET -1.975 0 0
                            }
                          }
                        }
                      }
                    }
                    JOINT RightInHandRing
                    {
                      OFFSET -3.36516 0.537895 -0.128947
                      CHANNELS 3 Zrotation Xrotation Yrotation
                      JOINT RightHandRing1
                      {
                        OFFSET -4.63474 -0.022105 -0.478947
                        CHANNELS 3 Zrotation Xrotation Yrotation
                        JOINT RightHandRing2
                        {
                          OFFSET -3.44238 0 0
                          CHANNELS 3 Zrotation Xrotation Yrotation
                          JOINT RightHandRing3
                          {
                            OFFSET -2.3881 0 0
                            CHANNELS 3 Zrotation Xrotation Yrotation
                            End Site
                            {
                              OFFSET -1.857 0 0
                            }
                          }
                        }
                      }
                    }
                    JOINT RightInHandPinky
                    {
                      OFFSET -3.16105 0.469368 -1.20179
                      CHANNELS 3 Zrotation Xrotation Yrotation
                      JOINT RightHandPinky1
                      {
                        OFFSET -4.14105 -0.022105 -1.09053
                        CHANNELS 3 Zrotation Xrotation Yrotation
                        JOINT RightHandPinky2
                        {
                          OFFSET -2.75653 0 0
                          CHANNELS 3 Zrotation Xrotation Yrotation
                          JOINT RightHandPinky3
                          {
                            OFFSET -1.74189 0 0
                            CHANNELS 3 Zrotation Xrotation Yrotation
                            End Site
                            {
                              OFFSET -1.645 0 0
                            }
                          }
                        }
                      }
                    }
                  }
                }
              }
            }
            JOINT LeftShoulder
            {
              OFFSET 3.25131 6.94393 -0.0111894
              CHANNELS 3 Zrotation Xrotation Yrotation
              JOINT LeftArm
              {
                OFFSET 12.7762 -0.0164608 -0.057961
                CHANNELS 3 Zrotation Xrotation Yrotation
                JOINT LeftForeArm
                {
                  OFFSET 26.494 -0.0292415 -0.00751187
                  CHANNELS 3 Zrotation Xrotation Yrotation
                  JOINT LeftHand
                  {
                    OFFSET 26.0005 -0.052199 0.00178648
                    CHANNELS 3 Zrotation Xrotation Yrotation
                    JOINT LeftHandThumb1
                    {
                      OFFSET 2.48905 0.190105 3.12053
                      CHANNELS 3 Zrotation Xrotation Yrotation
                      JOINT LeftHandThumb2
                      {
                        OFFSET 3.68274 0 0
                        CHANNELS 3 Zrotation Xrotation Yrotation
                        JOINT LeftHandThumb3
                        {
                          OFFSET 2.55832 0 0
                          CHANNELS 3 Zrotation Xrotation Yrotation
                          End Site
                          {
                            OFFSET 2.194 0 0
                          }
                        }
                      }
                    }
                    JOINT LeftInHandIndex
                    {
                      OFFSET 3.22368 0.508421 1.97842
                      CHANNELS 3 Zrotation Xrotation Yrotation
                      JOINT LeftHandIndex1
                      {
                        OFFSET 5.21684 -0.091368 0.999158
                        CHANNELS 3 Zrotation Xrotation Yrotation
                        JOINT LeftHandIndex2
                        {
                          OFFSET 3.61937 0 0
                          CHANNELS 3 Zrotation Xrotation Yrotation
                          JOINT LeftHandIndex3
                          {
                            OFFSET 2.0521 0 0
                            CHANNELS 3 Zrotation Xrotation Yrotation
                            End Site
                            {
                              OFFSET 1.805 0 0
                            }
                          }
                        }
                      }
                    }
                    JOINT LeftInHandMiddle
                    {
                      OFFSET 3.38211 0.517263 0.756737
                      CHANNELS 3 Zrotation Xrotation Yrotation
                      JOINT LeftHandMiddle1
                      {
                        OFFSET 5.17411 -0.084 0.313895
                        CHANNELS 3 Zrotation Xrotation Yrotation
                        JOINT LeftHandMiddle2
                        {
                          OFFSET 3.94947 0 0
                          CHANNELS 3 Zrotation Xrotation Yrotation
                          JOINT LeftHandMiddle3
                          {
                            OFFSET 2.47579 0 0
                            CHANNELS 3 Zrotation Xrotation Yrotation
                            End Site
                            {
                              OFFSET 1.975 0 0
                            }
                          }
                        }
                      }
                    }
                    JOINT LeftInHandRing
                    {
                      OFFSET 3.36516 0.537895 -0.128947
                      CHANNELS 3 Zrotation Xrotation Yrotation
                      JOINT LeftHandRing1
                      {
                        OFFSET 4.63474 -0.022105 -0.478947
                        CHANNELS 3 Zrotation Xrotation Yrotation
                        JOINT LeftHandRing2
                        {
                          OFFSET 3.44238 0 0
                          CHANNELS 3 Zrotation Xrotation Yrotation
                          JOINT LeftHandRing3
                          {
                            OFFSET 2.3881 0 0
                            CHANNELS 3 Zrotation Xrotation Yrotation
                            End Site
                            {
                              OFFSET 1.857 0 0
                            }
                          }
                        }
                      }
                    }
                    JOINT LeftInHandPinky
                    {
                      OFFSET 3.16105 0.469368 -1.20179
                      CHANNELS 3 Zrotation Xrotation Yrotation
                      JOINT LeftHandPinky1
                      {
                        OFFSET 4.14105 -0.022105 -1.09053
                        CHANNELS 3 Zrotation Xrotation Yrotation
                        JOINT LeftHandPinky2
                        {
                          OFFSET 2.75653 0 0
                          CHANNELS 3 Zrotation Xrotation Yrotation
                          JOINT LeftHandPinky3
                          {
                            OFFSET 1.74189 0 0
                            CHANNELS 3 Zrotation Xrotation Yrotation
                            End Site
                            {
                              OFFSET 1.645 0 0
                            }
                          }
                        }
                      }
                    }
                  }
                }
              }
            }
          }
        }
      }
    }
  }
}
MOTION
Frames: 2
Frame Time: 0.00833333
4.500000000000000000e+02 0.000000000000000000e+00 0.000000000000000000e+00 0.000000000000000000e+00 0.000000000000000000e+00 0.000000000000000000e+00 2.242242783821015578e-02 4.677932186817865962e-03 9.485604349233879573e-03 -4.276922067596843069e-02 -9.638900568187834528e-02 -8.065427027920064884e-02 1.156906872613767435e-02 2.556667254017359198e-02 1.728181728736694067e-02 -8.768783268295865518e-02 9.883091479730131412e-02 -9.003211675465162822e-02 -3.158264211610851274e-02 -6.813972496023283643e-02 8.068363668418067347e-02 3.103654892895356746e-02 -1.156037738741301502e-02 -1.011406578161021114e-01 7.582190461271563764e-02 4.155909586892764240e-02 2.282744942736072979e-02 -6.000148178910091890e-02 1.201936890756905019e-02 4.394831897282493183e-02 -1.314758720492976291e-02 7.543930629915979527e-03 1.019606479938112327e-02 -2.106644820918037939e-02 1.504377758223215088e-02 1.079953872865834115e-02 3.597863651630015761e-03 7.276222007605548077e-04 -8.856752975336936937e-04 5.094262452236900281e-03 2.455290256241444459e-03 -1.210174227382510535e-02 8.350015303378723053e-02 -5.116420381548974355e-02 -6.529651489190559099e-02 -1.741608095762235686e-02 -7.937334219738927110e-02 8.653354581311317262e-04 2.092623114276563959e-02 4.509593650368558249e-02 -1.164873138276451559e-01 1.779726815640262083e-01 -2.245987628423672458e-02 1.966309039388297597e-01 -1.171204124677801828e-01 -5.087338748825678131e-02 -2.212903004747377445e-01 0.000000000000000000e+00 0.000000000000000000e+00 0.000000000000000000e+00 -1.002204641775575963e-15 1.324146760856024150e-15 0.000000000000000000e+00 4.791733544628767202e-15 -5.319836124874401105e-16 0.000000000000000000e+00 4.264256756418675014e-15 -1.917060236958162892e-16 -5.016263336210456944e-16 0.000000000000000000e+00 0.000000000000000000e+00 0.000000000000000000e+00 0.000000000000000000e+00 -7.717256082716333872e-16 -3.446063409033327883e-15 0.000000000000000000e+00 1.820144860001391888e-15 1.042655645744997341e-14 4.264256756418675014e-15 -1.917060236958162892e-16 -5.016263336210456944e-16 0.000000000000000000e+00 -4.716794056521049977e-15 -8.241392668051417231e-15 0.000000000000000000e+00 1.265013232911694506e-15 -1.469698350455383664e-15 0.000000000000000000e+00 -1.452984972330086350e-17 1.591944842199486303e-15 4.264256756418675014e-15 -1.917060236958162892e-16 -5.016263336210456944e-16 0.000000000000000000e+00 0.000000000000000000e+00 0.000000000000000000e+00 0.000000000000000000e+00 5.207188188007894728e-15 -6.452640872436042420e-15 0.000000000000000000e+00 -1.121686943465215344e-15 -9.978385925059049357e-16 4.264256756418675014e-15 -1.917060236958162892e-16 -5.016263336210456944e-16 0.000000000000000000e+00 0.000000000000000000e+00 0.000000000000000000e+00 0.000000000000000000e+00 -1.761858306672479888e-15 4.222961540176326990e-15 0.000000000000000000e+00 -1.941125799989103776e-16 -4.122345413691558678e-15 -3.453935938788490340e-02 -5.822944547320329373e-02 2.718962115409971625e-04 -2.218188168341750366e-01 -3.853455213026647785e-02 1.968359830697836987e-01 2.528471142459166598e-01 5.235469820592682233e-02 3.132134522588598258e-01 2.212772695238146570e-01 1.560164871336143511e-01 1.185815529526727113e-01 0.000000000000000000e+00 0.000000000000000000e+00 0.000000000000000000e+00 2.854412164509348412e-16 4.833935725610005425e-15 0.000000000000000000e+00 8.199550395369878357e-15 5.953179681245853048e-15 0.000000000000000000e+00 3.157681418899173210e-15 -1.370998604924080615e-16 2.944784423270921509e-15 0.000000000000000000e+00 0.000000000000000000e+00 0.000000000000000000e+00 0.000000000000000000e+00 -2.549284719616978664e-15 2.944631261563358681e-15 0.000000000000000000e+00 -1.800926845866789748e-15 6.140050189418755468e-15 3.157681418899173210e-15 -1.370998604924080615e-16 2.944784423270921509e-15 0.000000000000000000e+00 4.513292955367624841e-15 2.771507649204415213e-15 0.000000000000000000e+00 1.523022913682341287e-15 5.700039364364819002e-15 0.000000000000000000e+00 -2.310321300247466654e-15 3.090654232761621644e-15 3.157681418899173210e-15 -1.370998604924080615e-16 2.944784423270921509e-15 0.000000000000000000e+00 0.000000000000000000e+00 0.000000000000000000e+00 0.000000000000000000e+00 1.303371763802219036e-15 3.749146544304080736e-16 0.000000000000000000e+00 -1.850604110210792395e-16 -5.165355345981088196e-15 3.157681418899173210e-15 -1.370998604924080615e-16 2.944784423270921509e-15 0.000000000000000000e+00 0.000000000000000000e+00 0.000000000000000000e+00 0.000000000000000000e+00 2.908560003229475923e-15 -1.730917696988141441e-15 0.000000000000000000e+00 -2.037288192747192620e-16 3.359158018720129881e-15
4.500000000000000000e+02 0.000000000000000000e+00 0.000000000000000000e+00 0.000000000000000000e+00 0.000000000000000000e+00 0.000000000000000000e+00 3.878160047947103173e-02 -1.636154495375528872e-02 -6.593677592707167245e-02 3.492446743783225727e-02 -1.434114933795196389e-01 2.976144127823606225e-02 -2.013809930167088924e-02 3.775721862961670117e-02 4.951608692605671130e-02 -6.966349334710553176e-02 7.796544804359040182e-02 -7.598628213771191353e-02 1.631512052031275015e-02 -3.472451014706475630e-02 1.703064129295009388e-01 2.797267827328819498e-02 -2.163849301067476139e-02 -1.246142962446380037e-01 8.813041605352613106e-02 3.349485357110613959e-02 5.713075070049215831e-02 -7.035594887710025502e-02 -1.305518751439599216e-02 6.692713331268898558e-02 -1.663444932028335793e-02 3.509015408865786591e-03 1.641660190341783648e-02 -2.634374340081822516e-02 8.994507511408711062e-03 2.064160353859436844e-02 2.391847856167217314e-03 1.257250294817070834e-03 2.645462223389187040e-04 3.351661554301168904e-03 2.362215834432445424e-03 -7.358068767187287383e-03 6.058167642409740400e-02 -2.947793804803601481e-02 -4.051816166181087392e-02 -2.382434420916199752e-02 -4.905805194313627576e-02 1.098639422901205413e-02 9.085111726209479932e-02 -4.219176538993901771e-02 -1.346189676128079493e-01 2.750618237328256166e-01 6.270600351888455659e-02 3.492185582642290953e-01 -1.351416844307015697e-01 -4.210552025883296939e-02 -2.116023421678630001e-01 0.000000000000000000e+00 0.000000000000000000e+00 0.000000000000000000e+00 5.276733830225835057e-16 1.914810479042981126e-15 0.000000000000000000e+00 7.041003847766785190e-15 3.396827412274481224e-16 0.000000000000000000e+00 4.371554388408360915e-15 -1.682441708967700631e-16 -1.832968028979867011e-15 0.000000000000000000e+00 0.000000000000000000e+00 0.000000000000000000e+00 0.000000000000000000e+00 9.016163497575811822e-16 -1.949622491055954477e-15 0.000000000000000000e+00 2.776478348107147591e-15 1.444347990940062603e-14 4.371554388408360915e-15 -1.682441708967700631e-16 -1.832968028979867011e-15 0.000000000000000000e+00 -5.156063510090204439e-15 -4.610717048666503852e-15 0.000000000000000000e+00 1.697358133089450058e-15 3.556435673379078442e-15 0.000000000000000000e+00 7.710163206138369529e-16 6.080194522724600014e-15 4.371554388408360915e-15 -1.682441708967700631e-16 -1.832968028979867011e-15 0.000000000000000000e+00 0.000000000000000000e+00 0.000000000000000000e+00 0.000000000000000000e+00 7.247565076149792822e-15 -3.486785647045400758e-15 0.000000000000000000e+00 -5.801992496792173825e-16 2.383080545276483878e-15 4.371554388408360915e-15 -1.682441708967700631e-16 -1.832968028979867011e-15 0.000000000000000000e+00 0.000000000000000000e+00 0.000000000000000000e+00 0.000000000000000000e+00 -2.735248254928390700e-15 7.907469382474919347e-15 0.000000000000000000e+00 9.526898975851681093e-17 -2.306713308835726266e-15 -5.179311738073768406e-02 -5.901398910872746040e-02 6.275960089248733970e-03 -1.953766786897510876e-01 -2.183835921384676138e-02 1.747528141155424708e-01 1.884586567013718517e-01 6.433502405626982668e-02 2.224800669127042774e-01 2.228556071354619028e-01 1.495095803879276652e-01 8.863722009600280560e-02 0.000000000000000000e+00 0.000000000000000000e+00 0.000000000000000000e+00 7.082954277936961955e-16 4.061363453616975726e-15 0.000000000000000000e+00 8.816120795590221807e-15 5.606189572183083185e-15 0.000000000000000000e+00 3.419180463407076831e-15 -1.585618935826926709e-16 2.071965580340820677e-15 0.000000000000000000e+00 0.000000000000000000e+00 0.000000000000000000e+00 0.000000000000000000e+00 -2.504589602650115903e-15 2.161707826096857223e-15 0.000000000000000000e+00 -1.544050893976764724e-15 2.631226332799643126e-15 3.419180463407076831e-15 -1.585618935826926709e-16 2.071965580340820677e-15 0.000000000000000000e+00 5.194449047637152542e-15 1.223320633929987501e-15 0.000000000000000000e+00 1.632660638539311692e-15 4.303370424571970655e-15 0.000000000000000000e+00 -1.761063534662986412e-15 1.301190472796440184e-15 3.419180463407076831e-15 -1.585618935826926709e-16 2.071965580340820677e-15 0.000000000000000000e+00 0.000000000000000000e+00 0.000000000000000000e+00 0.000000000000000000e+00 8.932515790212243632e-16 -1.318035444964692210e-15 0.000000000000000000e+00 4.771588413102062179e-16 -7.599772613668343978e-15 3.419180463407076831e-15 -1.585618935826926709e-16 2.071965580340820677e-15 0.000000000000000000e+00 0.000000000000000000e+00 0.000000000000000000e+00 0.000000000000000000e+00 2.223559590963255037e-15 -5.122855510037533807e-15 0.000000000000000000e+00 3.062900105845800899e-16 1.660446660791105414e-15
